<svg width="1412" height="200" viewBox="0 0 1412 200" fill="none" xmlns="http://www.w3.org/2000/svg">
<g clip-path="url(#clip0_190_10353)">
<rect width="1412" height="200" rx="4" fill="#CFE9FF"/>
<path d="M458.889 82.3273H542.307C542.307 82.3273 545.28 82.3273 543.346 79.6664C540.415 75.618 536.271 65.8695 525.555 66.5542C513.296 67.3471 510.677 71.4976 510.677 71.6117C510.677 71.6117 508.809 62.3677 498.376 63.0344C487.942 63.7011 485.594 70.945 485.594 70.945C485.594 70.945 481.311 66.9627 473.947 68.9748C469.851 70.098 465.844 73.774 466.607 77.2398C463.184 76.0084 463.364 75.5459 459.718 76.3628C451.867 78.1167 458.889 82.3273 458.889 82.3273Z" fill="#F9FAFB"/>
<path d="M389.769 57.1562H325.308C325.308 57.1562 323.009 57.1562 324.507 54.935C326.775 51.5516 329.972 43.3951 338.253 43.9737C347.726 44.6349 349.751 48.1061 349.751 48.1991C349.751 48.1991 351.197 40.4663 359.256 41.0293C367.314 41.5872 369.132 47.6464 369.132 47.6464C369.132 47.6464 372.443 44.3198 378.136 45.9986C381.302 46.9335 384.396 50.0122 383.808 52.9101C386.452 51.877 386.313 51.4947 389.128 52.1766C395.192 53.6436 389.769 57.1613 389.769 57.1613V57.1562Z" fill="#F9FAFB"/>
<path d="M271.915 41.3335H182.808C182.808 41.3335 179.63 41.3335 181.701 38.2631C184.836 33.586 189.256 22.3109 200.702 23.1107C213.798 24.0247 216.597 28.8232 216.597 28.9517C216.597 28.9517 218.596 18.2622 229.736 19.0405C240.875 19.8117 243.389 28.1877 243.389 28.1877C243.389 28.1877 247.966 23.5891 255.835 25.9098C260.212 27.2022 264.489 31.4581 263.675 35.4639C267.331 34.0358 267.138 33.5074 271.03 34.45C279.413 36.4779 271.915 41.3407 271.915 41.3407V41.3335Z" fill="#F9FAFB"/>
<path d="M131.849 124.526C131.849 124.526 109.718 158.726 103.933 205.277L85.9219 203.579C85.9219 203.579 101.586 149.104 126.314 121.604C132.049 120.547 131.857 124.526 131.857 124.526H131.849Z" fill="#FEC035"/>
<path d="M126.786 123.153C132.479 114.83 133.652 103.76 128.875 94.072C124.106 84.3839 114.617 78.5577 104.555 78L107.801 84.5919L113.985 86.9141L109.931 88.9116L112.786 94.7212L118.97 97.0434L114.917 99.0409L126.794 123.153H126.786Z" fill="#108C63"/>
<path d="M104.555 78C104.555 78 133.486 84.4754 126.694 122.97" stroke="black" stroke-width="0.307957" stroke-miterlimit="10" stroke-linecap="round"/>
<path d="M131.262 112.583L127.533 116.42L120.941 111.293" stroke="black" stroke-width="0.307957" stroke-miterlimit="10" stroke-linecap="round"/>
<path d="M131.134 100.439L127.281 105.259L116.469 101.455" stroke="black" stroke-width="0.307957" stroke-miterlimit="10" stroke-linecap="round"/>
<path d="M124.224 87.2812L122.742 91.9505L111.023 91.1432" stroke="black" stroke-width="0.307957" stroke-miterlimit="10" stroke-linecap="round"/>
<path d="M127.241 123.552C118.976 117.776 107.923 116.494 98.185 121.172C88.4469 125.849 82.5291 135.271 81.8633 145.334L88.4885 142.154L90.8689 135.995L92.8249 140.073L98.6594 137.277L101.04 131.118L102.996 135.196L127.233 123.569L127.241 123.552Z" fill="#108C63"/>
<path d="M81.8555 145.334C81.8555 145.334 88.6222 116.469 127.05 123.644" stroke="black" stroke-width="0.307957" stroke-miterlimit="10" stroke-linecap="round"/>
<path d="M116.711 118.967L120.506 122.729L115.312 129.271" stroke="black" stroke-width="0.307957" stroke-miterlimit="10" stroke-linecap="round"/>
<path d="M104.57 118.975L109.348 122.878L105.428 133.648" stroke="black" stroke-width="0.307957" stroke-miterlimit="10" stroke-linecap="round"/>
<path d="M91.3359 125.75L95.9886 127.281L95.073 138.992" stroke="black" stroke-width="0.307957" stroke-miterlimit="10" stroke-linecap="round"/>
<path d="M127.086 123.502C135.817 118.45 146.937 118.125 156.242 123.619C165.547 129.112 170.633 139.008 170.433 149.087L164.099 145.35L162.251 139.008L159.954 142.903L154.378 139.616L152.53 133.274L150.233 137.169L127.086 123.502Z" fill="#108C63"/>
<path d="M170.433 149.096C170.433 149.096 166.164 119.757 127.27 123.611" stroke="black" stroke-width="0.307957" stroke-miterlimit="10" stroke-linecap="round"/>
<path d="M137.963 119.84L133.859 123.261L138.47 130.227" stroke="black" stroke-width="0.307957" stroke-miterlimit="10" stroke-linecap="round"/>
<path d="M150.066 120.889L144.973 124.368L147.944 135.438" stroke="black" stroke-width="0.307957" stroke-miterlimit="10" stroke-linecap="round"/>
<path d="M162.665 128.771L157.896 129.895L157.805 141.639" stroke="black" stroke-width="0.307957" stroke-miterlimit="10" stroke-linecap="round"/>
<path d="M127.031 123.461C128.43 113.473 135.021 104.509 145.076 100.556C155.13 96.6105 166.067 98.6913 173.882 105.059L167.041 107.747L160.906 105.3L162.563 109.511L156.537 111.875L150.403 109.428L152.059 113.64L127.04 123.461H127.031Z" fill="#0BB380"/>
<path d="M173.882 105.058C173.882 105.058 158.809 98.1332 144.868 105.341C130.926 112.549 130.186 118.017 127.031 123.452" stroke="black" stroke-width="0.307957" stroke-miterlimit="10" stroke-linecap="round"/>
<path d="M139.744 103.609L136.523 110.551L149.915 114.479" stroke="black" stroke-width="0.307957" stroke-miterlimit="10" stroke-linecap="round"/>
<path d="M153.026 98.8574L148.406 103.818L161.54 109.911" stroke="black" stroke-width="0.307957" stroke-miterlimit="10" stroke-linecap="round"/>
<path d="M126.867 123.461C125.468 113.473 118.876 104.509 108.822 100.556C98.7677 96.6105 87.8311 98.6913 80.0156 105.059L86.8573 107.747L92.9914 105.3L91.3351 109.511L97.3611 111.875L103.495 109.428L101.839 113.64L126.858 123.461H126.867Z" fill="#0BB380"/>
<path d="M80.0156 105.058C80.0156 105.058 95.0889 98.1332 109.03 105.341C122.971 112.549 123.712 118.017 126.867 123.452" stroke="black" stroke-width="0.307957" stroke-miterlimit="10" stroke-linecap="round"/>
<path d="M114.159 103.609L117.38 110.551L103.988 114.479" stroke="black" stroke-width="0.307957" stroke-miterlimit="10" stroke-linecap="round"/>
<path d="M100.874 98.8574L105.493 103.818L92.3594 109.911" stroke="black" stroke-width="0.307957" stroke-miterlimit="10" stroke-linecap="round"/>
<path d="M127.125 123.461C137.071 125.134 145.852 131.976 149.514 142.139C153.185 152.301 150.796 163.171 144.212 170.812L141.715 163.895L144.337 157.828L140.084 159.359L137.887 153.275L140.509 147.207L136.255 148.739L127.133 123.453L127.125 123.461Z" fill="#0BB380"/>
<path d="M144.221 170.803C144.221 170.803 151.562 155.93 144.737 141.789C137.912 127.647 132.468 126.757 127.125 123.461" stroke="black" stroke-width="0.307957" stroke-miterlimit="10" stroke-linecap="round"/>
<path d="M146.617 136.72L139.767 133.299L135.473 146.583" stroke="black" stroke-width="0.307957" stroke-miterlimit="10" stroke-linecap="round"/>
<path d="M150.997 150.129L146.178 145.377L139.719 158.328" stroke="black" stroke-width="0.307957" stroke-miterlimit="10" stroke-linecap="round"/>
<path d="M125.279 136.329C124.172 138.527 122.973 140.99 121.725 143.72C119.319 141.664 116.065 140.2 113.477 139.267C114.858 136.987 116.29 134.765 117.763 132.617C121.267 133.225 123.697 134.823 125.279 136.338V136.329Z" fill="#FE9435"/>
<path d="M116.954 154.941C115.631 158.303 114.316 161.891 113.042 165.694C109.813 163.63 105.493 162.032 102.039 160.958C103.704 157.346 105.493 153.701 107.383 150.08C111.319 151.154 114.732 153.293 116.954 154.941Z" fill="#FE9435"/>
<path d="M108.958 179.376C107.876 183.487 106.886 187.765 106.02 192.185C100.103 190.429 94.7342 189.364 90.7891 188.731C92.2706 184.561 94.0684 179.742 96.1658 174.557C101.043 175.347 105.621 177.47 108.958 179.376Z" fill="#FE9435"/>
<path d="M-10 166.615V290.656H318C197.131 141.35 -10 166.615 -10 166.615Z" fill="#FFD3C1"/>
<path d="M298.428 47.523C297.009 46.8914 295.34 46.829 293.874 47.3515C292.408 47.8739 291.129 49.0281 290.42 50.4162C289.125 49.1061 287.261 48.3808 285.421 48.451C283.581 48.529 281.787 49.4024 280.602 50.8139C283.432 49.8469 286.825 50.5566 289.141 52.4359C290.357 53.4185 292.502 52.7791 293.882 52.046C293.796 50.8685 294.264 49.8157 295.075 48.9501C295.878 48.0845 297.243 47.5152 298.428 47.523Z" fill="#9ECEEF"/>
<path d="M433.415 53.0435C432.237 52.8797 430.997 53.1838 430.03 53.8701C429.063 54.5641 428.362 55.6715 428.135 56.8412C426.911 56.155 425.39 55.999 424.049 56.4435C422.708 56.888 421.577 57.9018 421 59.1885C422.879 57.8862 425.515 57.699 427.621 58.6036C428.72 59.0715 430.163 58.1513 431.029 57.3247C430.717 56.4747 430.841 55.6091 431.255 54.7981C431.668 53.9948 432.549 53.293 433.423 53.0435H433.415Z" fill="#9ECEEF"/>
<path d="M279.46 71.791C278.868 71.2997 278.072 71.0424 277.308 71.097C276.536 71.1516 275.764 71.5259 275.241 72.0951C274.797 71.2919 274.001 70.6993 273.112 70.4809C272.223 70.2704 271.249 70.4497 270.484 70.9644C271.966 70.8864 273.495 71.674 274.352 72.8906C274.797 73.5222 275.912 73.5066 276.676 73.3429C276.793 72.7658 277.16 72.3291 277.659 72.025C278.158 71.7208 278.891 71.6273 279.452 71.791H279.46Z" fill="#9ECEEF"/>
<path d="M173.976 31.3965C173.383 30.9052 172.588 30.6479 171.823 30.7024C171.051 30.757 170.279 31.1313 169.757 31.7006C169.312 30.8974 168.517 30.3047 167.628 30.0864C166.739 29.8758 165.764 30.0552 165 30.5699C166.482 30.4919 168.01 31.2795 168.868 32.496C169.312 33.1277 170.428 33.1121 171.192 32.9483C171.309 32.3713 171.675 31.9346 172.174 31.6304C172.674 31.3263 173.407 31.2327 173.968 31.3965H173.976Z" fill="#9ECEEF"/>
<path d="M304.288 95.6505C303.313 95.0578 302.105 94.8551 300.99 95.1046C299.874 95.3464 298.829 96.0638 298.19 97.0074C297.371 95.9312 296.084 95.2294 294.735 95.1124C293.386 94.9954 291.998 95.4633 291 96.3757C293.152 95.939 295.554 96.7734 297.067 98.3565C297.855 99.1909 299.485 98.918 300.561 98.5203C300.607 97.6546 301.052 96.9372 301.715 96.3757C302.385 95.8221 303.423 95.5335 304.288 95.6505Z" fill="#9ECEEF"/>
<path d="M1303.36 87.7464L1308.59 78.8262L1306.74 88.9993L1303.36 87.7464Z" fill="#FFBB33"/>
<path d="M1332.3 18.4516L1325.07 30.4121L1329.01 17L1332.3 18.4516Z" fill="#FFBB33"/>
<path d="M1276.18 42.2754L1288.51 48.4394L1275 45.6798L1276.18 42.2754Z" fill="#FFBB33"/>
<path d="M1352.35 67.4698L1341.45 61.2285L1353.67 64.1199L1352.35 67.4698Z" fill="#FFBB33"/>
<path d="M1334.4 85.8072L1329.66 75.1191L1337.43 83.8588L1334.4 85.8072Z" fill="#FFBB33"/>
<path d="M1296.87 20.5957L1300.98 31.7407L1293.72 22.3384L1296.87 20.5957Z" fill="#FFBB33"/>
<path d="M1356.69 45.1121L1343.87 49.9882L1354.98 41.9434L1356.69 45.1121Z" fill="#FFBB33"/>
<path d="M1281.2 67.2379L1291 64.8848L1282.65 70.5334L1281.2 67.2379Z" fill="#FFBB33"/>
<path d="M1339.91 53.6627C1339.91 65.7248 1328.98 75.5028 1315.49 75.5028C1302 75.5028 1291.07 65.7248 1291.07 53.6627C1291.07 41.6004 1302 31.8223 1315.49 31.8223C1328.98 31.8223 1339.91 41.6004 1339.91 53.6627Z" fill="#FFED4A"/>
<path d="M1308.03 51.2553C1307.64 51.2553 1307.25 51.1841 1306.84 51.0412C1305.79 50.6681 1305.09 49.9967 1304.77 49.0454C1303.83 46.2824 1306.5 42.1082 1306.62 41.9314L1307.37 42.4209C1307.35 42.4605 1304.82 46.4065 1305.62 48.7566C1305.86 49.4427 1306.35 49.9123 1307.14 50.1927C1307.88 50.4516 1308.54 50.3998 1309.17 50.0327C1311.59 48.6268 1312.56 43.2771 1312.57 43.223L1313.46 43.3803C1313.42 43.6169 1312.4 49.194 1309.62 50.8103C1309.12 51.1064 1308.58 51.2553 1308.03 51.2553Z" fill="#0E1535"/>
<path d="M1319.07 54.5935C1318.68 54.5935 1318.29 54.5222 1317.89 54.3793C1316.83 54.0062 1316.14 53.3349 1315.81 52.3835C1314.87 49.6205 1317.54 45.4464 1317.66 45.2695L1318.42 45.759C1318.39 45.7987 1315.87 49.7446 1316.67 52.0947C1316.9 52.7809 1317.4 53.2505 1318.19 53.5308C1318.92 53.7904 1319.58 53.7383 1320.21 53.3708C1322.63 51.965 1323.61 46.6152 1323.62 46.5611L1324.5 46.7184C1324.46 46.9551 1323.44 52.5321 1320.67 54.1484C1320.16 54.4449 1319.62 54.5935 1319.07 54.5935Z" fill="#0E1535"/>
<path d="M1319.17 62.6957L1322.91 60.5036C1323.33 58.5562 1323.55 57.0703 1323.55 57.0703L1312.09 58.8893C1312.09 58.8893 1315.6 69.7294 1318.64 69.5949C1320.29 69.522 1321.6 65.8339 1322.45 62.4792L1319.17 62.6957Z" fill="#FFF2E3"/>
</g>
<defs>
<clipPath id="clip0_190_10353">
<rect width="1412" height="200" rx="4" fill="white"/>
</clipPath>
</defs>
</svg>
