<svg width="69" height="40" viewBox="0 0 69 40" fill="none" xmlns="http://www.w3.org/2000/svg">
<rect y="19" width="31" height="2" rx="1" fill="#E7F0FF"/>
<rect x="30" y="1" width="38" height="38" rx="19" fill="white" stroke="#E7F0FF" stroke-width="2"/>
<path d="M49 16.75C48.3572 16.75 47.7289 16.9406 47.1944 17.2977C46.6599 17.6548 46.2434 18.1624 45.9974 18.7563C45.7514 19.3501 45.6871 20.0036 45.8125 20.634C45.9379 21.2645 46.2474 21.8436 46.7019 22.2981C47.1564 22.7526 47.7355 23.0621 48.366 23.1875C48.9964 23.3129 49.6499 23.2486 50.2437 23.0026C50.8376 22.7566 51.3452 22.3401 51.7023 21.8056C52.0594 21.2711 52.25 20.6428 52.25 20C52.249 19.1383 51.9063 18.3123 51.297 17.703C50.6877 17.0937 49.8617 16.751 49 16.75ZM49 21.75C48.6539 21.75 48.3155 21.6474 48.0278 21.4551C47.74 21.2628 47.5157 20.9895 47.3832 20.6697C47.2508 20.3499 47.2161 19.9981 47.2836 19.6586C47.3512 19.3191 47.5178 19.0073 47.7626 18.7626C48.0073 18.5178 48.3191 18.3511 48.6586 18.2836C48.9981 18.2161 49.3499 18.2508 49.6697 18.3832C49.9895 18.5157 50.2628 18.74 50.4551 19.0277C50.6474 19.3155 50.75 19.6539 50.75 20C50.75 20.4641 50.5656 20.9092 50.2374 21.2374C49.9093 21.5656 49.4641 21.75 49 21.75ZM56.1163 18.6519C56.0951 18.5462 56.0514 18.4464 55.9882 18.3591C55.925 18.2719 55.8438 18.1993 55.75 18.1462L54.0131 17.1556L54.0063 15.1987C54.0059 15.0902 53.9819 14.983 53.9361 14.8846C53.8902 14.7861 53.8235 14.6989 53.7406 14.6287C53.0407 14.0365 52.2348 13.5825 51.3656 13.2906C51.2665 13.2572 51.1614 13.2448 51.0572 13.2544C50.9531 13.264 50.852 13.2953 50.7606 13.3462L49 14.3294L47.2394 13.3456C47.1479 13.2944 47.0466 13.2629 46.9422 13.2532C46.8378 13.2435 46.7325 13.2558 46.6331 13.2894C45.7637 13.5824 44.9578 14.0378 44.2581 14.6312C44.1755 14.7013 44.109 14.7884 44.0633 14.8866C44.0175 14.9848 43.9936 15.0917 43.9931 15.2L43.9844 17.1587L42.25 18.1469C42.1562 18.2001 42.075 18.2729 42.0119 18.3604C41.9488 18.4479 41.9053 18.5479 41.8844 18.6537C41.7078 19.5432 41.7078 20.4587 41.8844 21.3481C41.9055 21.4537 41.949 21.5535 42.0121 21.6408C42.0752 21.728 42.1563 21.8006 42.25 21.8537L43.9888 22.8444L43.9956 24.8012C43.996 24.9098 44.02 25.017 44.0658 25.1154C44.1117 25.2138 44.1784 25.3011 44.2613 25.3712C44.9612 25.9634 45.7671 26.4175 46.6363 26.7094C46.7354 26.7428 46.8404 26.7551 46.9446 26.7456C47.0488 26.736 47.1499 26.7047 47.2413 26.6537L49 25.6706L50.7588 26.6544C50.8503 26.7056 50.9515 26.7371 51.0559 26.7468C51.1603 26.7565 51.2656 26.7442 51.365 26.7106C52.2344 26.4176 53.0403 25.9622 53.74 25.3687C53.8226 25.2987 53.8891 25.2116 53.9348 25.1134C53.9806 25.0152 54.0045 24.9083 54.005 24.8L54.0138 22.8412L55.7519 21.8531C55.8457 21.7999 55.9269 21.7271 55.99 21.6396C56.0531 21.5521 56.0966 21.4521 56.1175 21.3462C56.2937 20.4567 56.2932 19.5412 56.1163 18.6519ZM54.7019 20.7256L53.0219 21.6806C52.9025 21.7483 52.8041 21.8475 52.7375 21.9675C52.7038 22.03 52.6681 22.0881 52.6313 22.1475C52.5572 22.2658 52.5176 22.4023 52.5169 22.5419L52.5081 24.4375C52.1038 24.7418 51.661 24.9912 51.1913 25.1794L49.4944 24.23C49.3825 24.1673 49.2564 24.1344 49.1281 24.1344H49.11C49.0388 24.1344 48.9663 24.1344 48.895 24.1344C48.761 24.1312 48.6285 24.1638 48.5113 24.2287L46.8125 25.1762C46.342 24.989 45.8982 24.7406 45.4925 24.4375L45.4856 22.5475C45.4851 22.4077 45.4454 22.2709 45.3713 22.1525C45.335 22.0937 45.2988 22.0331 45.265 21.9725C45.1983 21.8533 45.1002 21.7547 44.9813 21.6875L43.3 20.7269C43.2347 20.2449 43.2347 19.7563 43.3 19.2744L44.98 18.3194C45.0992 18.2517 45.1975 18.1527 45.2644 18.0331C45.2981 17.9706 45.3338 17.9119 45.3706 17.8525C45.4447 17.7342 45.4843 17.5977 45.485 17.4581L45.4919 15.5625C45.8964 15.2591 46.3391 15.0105 46.8088 14.8231L48.5056 15.7725C48.6228 15.8383 48.7557 15.8711 48.89 15.8675C48.9613 15.8675 49.0338 15.8675 49.105 15.8675C49.239 15.8707 49.3715 15.8381 49.4888 15.7731L51.1875 14.8237C51.658 15.011 52.1018 15.2594 52.5075 15.5625L52.5144 17.4525C52.515 17.5922 52.5546 17.7291 52.6288 17.8475C52.665 17.9062 52.7013 17.9669 52.735 18.0275C52.8017 18.1467 52.8998 18.2453 53.0188 18.3125L54.7 19.2706C54.7662 19.7533 54.7668 20.2427 54.7019 20.7256Z" fill="#344054"/>
</svg>
