<svg width="22" height="15" viewBox="0 0 22 15" fill="none" xmlns="http://www.w3.org/2000/svg">
<path d="M21.1817 14.1056C20.9216 14.2518 20.6141 14.2887 20.3268 14.2082C20.0396 14.1277 19.796 13.9363 19.6498 13.6763L13.2242 2.25H12.0054V2.625C12.0054 2.92337 11.8869 3.20952 11.6759 3.4205C11.465 3.63147 11.1788 3.75 10.8804 3.75C10.5821 3.75 10.2959 3.63147 10.0849 3.4205C9.87396 3.20952 9.75544 2.92337 9.75544 2.625V2.25H8.53669L2.11106 13.6763C2.03949 13.8066 1.9428 13.9214 1.82658 14.0141C1.71036 14.1068 1.57692 14.1756 1.43397 14.2164C1.29101 14.2572 1.14138 14.2693 0.993728 14.252C0.846073 14.2346 0.703321 14.1882 0.573723 14.1153C0.444126 14.0425 0.330254 13.9447 0.238689 13.8275C0.147124 13.7104 0.0796832 13.5763 0.0402645 13.433C0.000845709 13.2896 -0.00976908 13.1399 0.00903382 12.9924C0.0278367 12.8449 0.0756843 12.7026 0.149811 12.5737L5.95669 2.25H1.13044C0.832067 2.25 0.545919 2.13147 0.334941 1.9205C0.123962 1.70952 0.00543572 1.42337 0.00543572 1.125C0.00543572 0.826631 0.123962 0.540483 0.334941 0.329505C0.545919 0.118526 0.832067 0 1.13044 0H20.6304C20.9288 0 21.215 0.118526 21.4259 0.329505C21.6369 0.540483 21.7554 0.826631 21.7554 1.125C21.7554 1.42337 21.6369 1.70952 21.4259 1.9205C21.215 2.13147 20.9288 2.25 20.6304 2.25H15.8042L21.6111 12.5737C21.7572 12.8338 21.7941 13.1413 21.7136 13.4286C21.6331 13.7159 21.4418 13.9594 21.1817 14.1056ZM10.8804 5.25C10.5821 5.25 10.2959 5.36853 10.0849 5.5795C9.87396 5.79048 9.75544 6.07663 9.75544 6.375V7.875C9.75544 8.17337 9.87396 8.45952 10.0849 8.67049C10.2959 8.88147 10.5821 9 10.8804 9C11.1788 9 11.465 8.88147 11.6759 8.67049C11.8869 8.45952 12.0054 8.17337 12.0054 7.875V6.375C12.0054 6.07663 11.8869 5.79048 11.6759 5.5795C11.465 5.36853 11.1788 5.25 10.8804 5.25ZM10.8804 10.5C10.5821 10.5 10.2959 10.6185 10.0849 10.8295C9.87396 11.0405 9.75544 11.3266 9.75544 11.625V13.125C9.75544 13.4234 9.87396 13.7095 10.0849 13.9205C10.2959 14.1315 10.5821 14.25 10.8804 14.25C11.1788 14.25 11.465 14.1315 11.6759 13.9205C11.8869 13.7095 12.0054 13.4234 12.0054 13.125V11.625C12.0054 11.3266 11.8869 11.0405 11.6759 10.8295C11.465 10.6185 11.1788 10.5 10.8804 10.5Z" fill="#F9FAFB"/>
</svg>
