<svg width="32" height="32" viewBox="0 0 32 32" fill="none" xmlns="http://www.w3.org/2000/svg">
<path d="M23.1663 14.276L26.8088 10.8485L26.83 10.8273C27.5802 10.077 28.0017 9.05949 28.0017 7.9985C28.0017 6.93752 27.5802 5.91998 26.83 5.16975C26.0798 4.41952 25.0622 3.99805 24.0013 3.99805C22.9403 3.99805 21.9227 4.41952 21.1725 5.16975C21.1725 5.17725 21.1588 5.1835 21.1513 5.191L17.7238 8.8335L7.34876 5.0585C7.16994 4.99347 6.97628 4.98079 6.79052 5.02198C6.60475 5.06316 6.43459 5.15649 6.30001 5.291L3.30001 8.291C3.19547 8.39563 3.11544 8.52213 3.06568 8.66141C3.01593 8.80069 2.99769 8.94927 3.01227 9.09645C3.02686 9.24363 3.07391 9.38574 3.15004 9.51254C3.22616 9.63935 3.32947 9.74769 3.45251 9.82975L11.4388 15.1535L9.58626 16.9998H7.00001C6.73515 16.9999 6.48115 17.1051 6.29376 17.2923L3.29376 20.2923C3.17676 20.409 3.09051 20.5529 3.04272 20.7111C2.99494 20.8692 2.9871 21.0368 3.01991 21.1988C3.05273 21.3608 3.12517 21.5121 3.23076 21.6392C3.33636 21.7663 3.47181 21.8653 3.62501 21.9273L8.22751 23.7685L10.065 28.3623L10.0725 28.3823C10.1361 28.5361 10.2371 28.6717 10.3663 28.7767C10.4955 28.8816 10.6489 28.9527 10.8125 28.9833C10.9762 29.014 11.1449 29.0033 11.3034 28.9523C11.4618 28.9012 11.605 28.8114 11.72 28.691L14.7038 25.706C14.7971 25.6135 14.8713 25.5035 14.9222 25.3824C14.973 25.2612 14.9995 25.1312 15 24.9998V22.4135L16.845 20.5685L22.1688 28.5548C22.2508 28.6778 22.3592 28.7811 22.486 28.8572C22.6128 28.9334 22.7549 28.9804 22.9021 28.995C23.0492 29.0096 23.1978 28.9913 23.3371 28.9416C23.4764 28.8918 23.6029 28.8118 23.7075 28.7073L26.7075 25.7073C26.842 25.5727 26.9354 25.4025 26.9765 25.2167C27.0177 25.031 27.005 24.8373 26.94 24.6585L23.1663 14.276ZM23.1575 26.4298L17.8338 18.4448C17.7521 18.3208 17.644 18.2165 17.517 18.1395C17.3901 18.0626 17.2477 18.0148 17.1 17.9998C17.0663 17.9998 17.0338 17.9998 17.0013 17.9998C16.8698 17.9998 16.7397 18.0258 16.6183 18.0762C16.4969 18.1266 16.3866 18.2004 16.2938 18.2935L13.2938 21.2935C13.1061 21.4807 13.0005 21.7347 13 21.9998V24.586L11.3663 26.2198L9.92876 22.6248C9.87846 22.4999 9.8035 22.3866 9.70834 22.2914C9.61319 22.1963 9.49982 22.1213 9.37501 22.071L5.78251 20.6335L7.41501 18.9998H10C10.1314 18.9999 10.2615 18.9741 10.3829 18.9239C10.5043 18.8737 10.6146 18.8001 10.7075 18.7073L13.7075 15.7073C13.8123 15.6026 13.8925 15.476 13.9424 15.3366C13.9923 15.1972 14.0106 15.0485 13.996 14.9011C13.9814 14.7538 13.9343 14.6115 13.858 14.4846C13.7818 14.3577 13.6783 14.2493 13.555 14.1673L5.57001 8.84225L7.25751 7.156L17.66 10.9385C17.8433 11.0058 18.0423 11.0181 18.2324 10.9736C18.4226 10.9292 18.5955 10.8301 18.73 10.6885L22.5975 6.57475C22.9745 6.20881 23.4803 6.00589 24.0056 6.00985C24.531 6.0138 25.0337 6.22432 25.4051 6.59589C25.7765 6.96747 25.9868 7.47026 25.9905 7.99562C25.9943 8.52098 25.7911 9.0267 25.425 9.4035L21.3163 13.2698C21.1747 13.4042 21.0756 13.5772 21.0311 13.7673C20.9867 13.9575 20.9989 14.1565 21.0663 14.3398L24.8488 24.7423L23.1575 26.4298Z" fill="#667185"/>
</svg>
