<svg width="24" height="16" viewBox="0 0 24 16" fill="none" xmlns="http://www.w3.org/2000/svg">
<path d="M22.125 13.5034H21.75V2.35936L22.3603 2.22905C22.5068 2.20037 22.6462 2.14281 22.7703 2.05972C22.8943 1.97664 23.0006 1.86969 23.0829 1.74511C23.1652 1.62053 23.2219 1.48081 23.2496 1.3341C23.2774 1.18739 23.2756 1.03663 23.2445 0.890593C23.2134 0.744559 23.1536 0.606179 23.0684 0.48352C22.9833 0.360861 22.8746 0.256377 22.7486 0.176158C22.6227 0.0959392 22.4821 0.0415905 22.3349 0.0162806C22.1878 -0.00902918 22.0371 -0.00479372 21.8916 0.0287397L0.891563 4.52874C0.620421 4.58724 0.380451 4.74385 0.217735 4.96849C0.0550193 5.19313 -0.0189695 5.46997 0.00997724 5.74584C0.038924 6.0217 0.168766 6.27715 0.374567 6.46312C0.580369 6.6491 0.847621 6.75248 1.125 6.75343C1.2047 6.75358 1.28419 6.74541 1.36219 6.72905L1.50094 6.69905V13.5034H1.125C0.826631 13.5034 0.540483 13.622 0.329505 13.8329C0.118526 14.0439 0 14.3301 0 14.6284C0 14.9268 0.118526 15.2129 0.329505 15.4239C0.540483 15.6349 0.826631 15.7534 1.125 15.7534H22.125C22.4234 15.7534 22.7095 15.6349 22.9205 15.4239C23.1315 15.2129 23.25 14.9268 23.25 14.6284C23.25 14.3301 23.1315 14.0439 22.9205 13.8329C22.7095 13.622 22.4234 13.5034 22.125 13.5034ZM3.75 6.21624L19.5 2.84124V13.5034H17.625V7.87843C17.625 7.58006 17.5065 7.29391 17.2955 7.08293C17.0845 6.87195 16.7984 6.75343 16.5 6.75343H6.75C6.45163 6.75343 6.16548 6.87195 5.9545 7.08293C5.74353 7.29391 5.625 7.58006 5.625 7.87843V13.5034H3.75V6.21624ZM15.375 10.1284H7.875V9.00343H15.375V10.1284ZM7.875 12.3784H15.375V13.5034H7.875V12.3784Z" fill="white"/>
</svg>
