<svg width="32" height="32" viewBox="0 0 32 32" fill="none" xmlns="http://www.w3.org/2000/svg">
<path d="M16.9994 15.0002V22.0002C16.9994 22.2655 16.8941 22.5198 16.7065 22.7073C16.519 22.8949 16.2646 23.0002 15.9994 23.0002C15.7342 23.0002 15.4799 22.8949 15.2923 22.7073C15.1048 22.5198 14.9994 22.2655 14.9994 22.0002V15.0002C14.9994 14.735 15.1048 14.4807 15.2923 14.2931C15.4799 14.1056 15.7342 14.0002 15.9994 14.0002C16.2646 14.0002 16.519 14.1056 16.7065 14.2931C16.8941 14.4807 16.9994 14.735 16.9994 15.0002ZM29.9819 12.264L28.2494 25.2652C28.1852 25.7457 27.9486 26.1865 27.5837 26.5057C27.2188 26.8248 26.7505 27.0006 26.2657 27.0002H5.73318C5.24841 27.0006 4.78002 26.8248 4.41512 26.5057C4.05023 26.1865 3.81366 25.7457 3.74943 25.2652L2.01568 12.2652C1.9779 11.9826 2.00099 11.6952 2.0834 11.4222C2.16581 11.1492 2.30564 10.897 2.49351 10.6825C2.68138 10.468 2.91294 10.2962 3.17267 10.1785C3.4324 10.0608 3.71429 10 3.99943 10.0002H8.54568L15.2494 2.34149C15.3433 2.23509 15.4587 2.14986 15.588 2.09149C15.7173 2.03312 15.8576 2.00293 15.9994 2.00293C16.1413 2.00293 16.2816 2.03312 16.4109 2.09149C16.5402 2.14986 16.6556 2.23509 16.7494 2.34149L23.4532 10.0002H27.9994C28.2842 10.0004 28.5657 10.0614 28.8251 10.1792C29.0844 10.2969 29.3156 10.4687 29.5031 10.6831C29.6907 10.8974 29.8304 11.1493 29.9127 11.4219C29.9951 11.6946 30.0182 11.9817 29.9807 12.264H29.9819ZM11.2032 10.0002H20.7957L15.9994 4.51899L11.2032 10.0002ZM27.9994 12.0002H3.99943L5.73318 25.0002H26.2657L27.9994 12.0002ZM21.6044 14.9002L20.9044 21.9002C20.8906 22.0313 20.9028 22.1638 20.9404 22.2901C20.9779 22.4164 21.0401 22.5341 21.1232 22.6363C21.2064 22.7386 21.309 22.8233 21.425 22.8858C21.5411 22.9482 21.6683 22.9871 21.7994 23.0002C21.8332 23.0021 21.867 23.0021 21.9007 23.0002C22.1484 22.9999 22.3871 22.9077 22.5707 22.7414C22.7543 22.5752 22.8697 22.3467 22.8944 22.1002L23.5944 15.1002C23.621 14.8364 23.5416 14.5727 23.3737 14.3674C23.2059 14.162 22.9633 14.0318 22.6994 14.0052C22.4355 13.9787 22.1719 14.0581 21.9666 14.226C21.7612 14.3938 21.631 14.6364 21.6044 14.9002ZM10.3944 14.9002C10.3679 14.6364 10.2376 14.3938 10.0323 14.226C9.82694 14.0581 9.56332 13.9787 9.29943 14.0052C9.03554 14.0318 8.79299 14.162 8.62515 14.3674C8.4573 14.5727 8.37791 14.8364 8.40443 15.1002L9.10443 22.1002C9.1293 22.3478 9.24555 22.5771 9.43045 22.7435C9.61536 22.91 9.85566 23.0015 10.1044 23.0002C10.1382 23.0021 10.172 23.0021 10.2057 23.0002C10.3363 22.9871 10.4631 22.9484 10.5788 22.8862C10.6945 22.8241 10.7969 22.7398 10.88 22.6381C10.9631 22.5364 11.0253 22.4194 11.0632 22.2936C11.1011 22.1679 11.1138 22.0359 11.1007 21.9052L10.3944 14.9002Z" fill="#667185"/>
</svg>
