<svg width="32" height="32" viewBox="0 0 32 32" fill="none" xmlns="http://www.w3.org/2000/svg">
<path d="M11.7081 13.2921C11.801 13.385 11.8748 13.4952 11.9251 13.6166C11.9754 13.738 12.0013 13.8682 12.0013 13.9996C12.0013 14.131 11.9754 14.2611 11.9251 14.3825C11.8748 14.5039 11.801 14.6142 11.7081 14.7071L7.70806 18.7071C7.61518 18.8001 7.50489 18.8738 7.3835 18.9241C7.2621 18.9745 7.13197 19.0004 7.00056 19.0004C6.86914 19.0004 6.73901 18.9745 6.61762 18.9241C6.49622 18.8738 6.38593 18.8001 6.29306 18.7071L4.29306 16.7071C4.20015 16.6142 4.12645 16.5039 4.07616 16.3825C4.02588 16.2611 4 16.131 4 15.9996C4 15.7342 4.10542 15.4797 4.29306 15.2921C4.4807 15.1044 4.73519 14.999 5.00056 14.999C5.26592 14.999 5.52042 15.1044 5.70806 15.2921L7.00056 16.5858L10.2931 13.2921C10.3859 13.1991 10.4962 13.1253 10.6176 13.075C10.739 13.0247 10.8691 12.9988 11.0006 12.9988C11.132 12.9988 11.2621 13.0247 11.3835 13.075C11.5049 13.1253 11.6152 13.1991 11.7081 13.2921ZM10.2931 5.29208L7.00056 8.58583L5.70806 7.29208C5.52042 7.10444 5.26592 6.99902 5.00056 6.99902C4.73519 6.99902 4.4807 7.10444 4.29306 7.29208C4.10542 7.47972 4 7.73422 4 7.99958C4 8.26494 4.10542 8.51944 4.29306 8.70708L6.29306 10.7071C6.38593 10.8001 6.49622 10.8738 6.61762 10.9241C6.73901 10.9745 6.86914 11.0004 7.00056 11.0004C7.13197 11.0004 7.2621 10.9745 7.3835 10.9241C7.50489 10.8738 7.61518 10.8001 7.70806 10.7071L11.7081 6.70708C11.8957 6.51944 12.0011 6.26494 12.0011 5.99958C12.0011 5.73422 11.8957 5.47972 11.7081 5.29208C11.5204 5.10444 11.2659 4.99902 11.0006 4.99902C10.7352 4.99902 10.4807 5.10444 10.2931 5.29208ZM10.2931 21.2921L7.00056 24.5858L5.70806 23.2921C5.61515 23.1992 5.50485 23.1255 5.38345 23.0752C5.26206 23.0249 5.13195 22.999 5.00056 22.999C4.86916 22.999 4.73905 23.0249 4.61766 23.0752C4.49627 23.1255 4.38597 23.1992 4.29306 23.2921C4.20015 23.385 4.12645 23.4953 4.07616 23.6167C4.02588 23.7381 4 23.8682 4 23.9996C4 24.131 4.02588 24.2611 4.07616 24.3825C4.12645 24.5039 4.20015 24.6142 4.29306 24.7071L6.29306 26.7071C6.38593 26.8001 6.49622 26.8738 6.61762 26.9241C6.73901 26.9745 6.86914 27.0004 7.00056 27.0004C7.13197 27.0004 7.2621 26.9745 7.3835 26.9241C7.50489 26.8738 7.61518 26.8001 7.70806 26.7071L11.7081 22.7071C11.8957 22.5194 12.0011 22.2649 12.0011 21.9996C12.0011 21.7342 11.8957 21.4797 11.7081 21.2921C11.5204 21.1044 11.2659 20.999 11.0006 20.999C10.7352 20.999 10.4807 21.1044 10.2931 21.2921ZM27.0006 5.99958H16.0006C15.7353 5.99958 15.481 6.10494 15.2934 6.29247C15.1059 6.48001 15.0006 6.73436 15.0006 6.99958V8.99958C15.0006 9.2648 15.1059 9.51915 15.2934 9.70669C15.481 9.89422 15.7353 9.99958 16.0006 9.99958H27.0006C27.2658 9.99958 27.5201 9.89422 27.7077 9.70669C27.8952 9.51915 28.0006 9.2648 28.0006 8.99958V6.99958C28.0006 6.73436 27.8952 6.48001 27.7077 6.29247C27.5201 6.10494 27.2658 5.99958 27.0006 5.99958ZM27.0006 21.9996H16.0006C15.7353 21.9996 15.481 22.1049 15.2934 22.2925C15.1059 22.48 15.0006 22.7344 15.0006 22.9996V24.9996C15.0006 25.2648 15.1059 25.5192 15.2934 25.7067C15.481 25.8942 15.7353 25.9996 16.0006 25.9996H27.0006C27.2658 25.9996 27.5201 25.8942 27.7077 25.7067C27.8952 25.5192 28.0006 25.2648 28.0006 24.9996V22.9996C28.0006 22.7344 27.8952 22.48 27.7077 22.2925C27.5201 22.1049 27.2658 21.9996 27.0006 21.9996ZM27.0006 13.9996H16.0006C15.7353 13.9996 15.481 14.1049 15.2934 14.2925C15.1059 14.48 15.0006 14.7344 15.0006 14.9996V16.9996C15.0006 17.2648 15.1059 17.5192 15.2934 17.7067C15.481 17.8942 15.7353 17.9996 16.0006 17.9996H27.0006C27.2658 17.9996 27.5201 17.8942 27.7077 17.7067C27.8952 17.5192 28.0006 17.2648 28.0006 16.9996V14.9996C28.0006 14.7344 27.8952 14.48 27.7077 14.2925C27.5201 14.1049 27.2658 13.9996 27.0006 13.9996Z" fill="#344054"/>
</svg>
